<?xml version="1.0" encoding="iso-8859-1"?>
<!-- Generator: Adobe Illustrator 19.0.0, SVG Export Plug-In . SVG Version: 6.00 Build 0)  -->
<svg version="1.1" id="Layer_1" xmlns="http://www.w3.org/2000/svg" xmlns:xlink="http://www.w3.org/1999/xlink" x="0px" y="0px"
	 viewBox="0 0 512 512" style="enable-background:new 0 0 512 512;" xml:space="preserve">
<g>
	<path style="fill:#898989;" d="M55.429,477.871C78.182,500.623,108.069,512,137.955,512s59.774-11.377,82.526-34.129
		L447.57,250.782l-22.161-22.161L198.321,455.709c-33.285,33.284-87.446,33.284-120.731,0c-3.608-3.609-6.833-7.497-9.698-11.594
		l-19.064,0.286l-3.365,22.143C48.517,470.496,51.839,474.281,55.429,477.871z"/>
	<path style="fill:#898989;" d="M452.416,59.592c11.775,21.054,8.738,48.226-9.141,66.106L206.83,362.149
		c-9.837,9.836-25.842,9.836-35.678,0c-3.993-3.993-6.336-9.005-7.087-14.205l-18.428,1.043l-5.844,23.228
		c2.454,4.33,5.51,8.409,9.197,12.096c22.056,22.057,57.943,22.056,80.001,0l236.445-236.451
		c30.156-30.157,33.367-77.187,9.678-110.965l-20.244,2.859L452.416,59.592z"/>
</g>
<g>
	<path style="fill:#B3B3B3;" d="M171.151,326.471L347.208,150.42l-22.161-22.162L148.99,304.309
		c-18.37,18.369-21.426,46.327-9.197,67.905l24.271-24.271C162.965,340.332,165.308,332.314,171.151,326.471z"/>
	<path style="fill:#B3B3B3;" d="M77.589,334.979L365.072,47.497c21.561-21.561,56.641-21.561,78.201,0
		c3.681,3.68,6.717,7.762,9.141,12.097l22.699-22.699c-2.846-4.058-6.056-7.937-9.678-11.56c-33.78-33.779-88.744-33.778-122.524,0
		L55.428,312.818c-22.044,22.043-34.184,51.352-34.184,82.526c0,26.098,8.513,50.885,24.218,71.201l22.429-22.429
		c-9.935-14.208-15.306-31.073-15.306-48.772C52.585,372.542,61.465,351.103,77.589,334.979z"/>
</g>
<g>
</g>
<g>
</g>
<g>
</g>
<g>
</g>
<g>
</g>
<g>
</g>
<g>
</g>
<g>
</g>
<g>
</g>
<g>
</g>
<g>
</g>
<g>
</g>
<g>
</g>
<g>
</g>
<g>
</g>
</svg>
