<svg id="Capa_1" enable-background="new 0 0 470.581 470.581" height="512" viewBox="0 0 470.581 470.581" width="512" xmlns="http://www.w3.org/2000/svg"><g><path d="m187.045 221.169h96.509v99.011h-96.509z" fill="#f4bb87"/><path d="m306.159 287.084-35.862 55.436-13.67-19.013-16.527-23.304 43.431-40.539 3.156 6.043c4.538 8.686 11.246 16.05 19.472 21.377z" fill="#eeefee"/><path d="m256.656 323.508-16.677-23.19.144-.121z" fill="#eeefee"/><path d="m437.461 366.377v80.917c.006 12.855-10.41 23.282-23.265 23.288-.004 0-.008 0-.011 0h-157.529l-10.691-135.274 10.691-11.799 13.641 19.012 35.833-55.431 101.324 36.533c18.014 6.501 30.017 23.602 30.007 42.754z" fill="#dbd8dd"/><path d="m245.965 335.307 10.691 135.274h-42.702l10.663-135.274-10.663-11.799 16.677-23.19-.144-.149.115-.172h9.377l.144.2-.144.121 16.677 23.19z" fill="#69b0ee"/><path d="m230.487 300.169-16.528 23.334-13.675 19.018-35.833-55.431c8.213-5.34 14.912-12.703 19.454-21.383l3.156-6.043z" fill="#eeefee"/><path d="m230.631 300.318-16.677 23.19 16.533-23.339z" fill="#eeefee"/><path d="m224.617 335.307-10.663 135.274h-157.558c-12.855 0-23.276-10.421-23.276-23.276v-80.917c.006-19.161 12.026-36.261 30.054-42.754l101.283-36.533 35.827 55.419 13.67-19.013z" fill="#dbd8dd"/><path d="m320.339 176.613s-3.168 40.82-36.016 66.036c-5.424 4.144-11.323 7.625-17.572 10.37-13.677 6.152-28.877 8.09-43.661 5.567h-.109c-6.6-.933-13.031-2.807-19.099-5.567-5.868-2.581-11.432-5.803-16.591-9.607-33.727-25.101-37.004-66.799-37.004-66.799-24.229-15.827-17.463-38.966-13.314-48.464 4.149 16.482 10.806 17.245 10.806 17.245-1.233-13.214-1.233-26.515 0-39.729 102.27 16.069 129.231-27.942 129.231-27.942-.654 24.556 43.661 2.726 43.661 2.726 3.713 28.596 5.13 60.687 5.13 60.687 3.17-5.286 5.11-11.217 5.676-17.354.001 0 19.863 32.419-11.138 52.831z" fill="#fed19a"/><path d="m331.472 124.752c-.566 6.137-2.506 12.068-5.676 17.354 0 0-1.417-32.091-5.13-60.687 0 0-70.615 41.256-172.892 25.21-1.233 13.214-1.233 26.515 0 39.729 0 0-6.657-.763-10.806-17.245-3.33-16.371-4.176-33.15-2.508-49.772 3.822-64.94 78.478-76.727 78.478-76.727s63.195-17.021 90.07 35.804c0 0 24.447-6.766 28.923 42.019 1.658 14.735 1.504 29.618-.459 44.315z" fill="#414451"/></g></svg>